<?xml version="1.0" standalone="no"?><!DOCTYPE svg PUBLIC "-//W3C//DTD SVG 1.1//EN" "http://www.w3.org/Graphics/SVG/1.1/DTD/svg11.dtd"><svg t="1707478358454" class="icon" viewBox="0 0 1024 1024" version="1.1" xmlns="http://www.w3.org/2000/svg" p-id="9782" xmlns:xlink="http://www.w3.org/1999/xlink" width="200" height="200"><path d="M673.6 134.6c29.4 12.7 57.2 28.7 82.9 47.9l-32.7 88.3-7.9 21.5 15.6 16.8c29.9 32.4 52.7 71.7 65.9 113.9l6.8 21.8 22.6 3.8 92.6 15.8c1.8 15.7 2.7 31.7 2.7 47.6 0 16-0.9 31.9-2.7 47.6l-92.6 15.8-22.6 3.8-6.8 21.8c-13.1 42.1-35.9 81.4-65.9 113.9l-15.6 16.8 7.9 21.5 32.7 88.3c-25.6 19.1-53.2 35.1-82.4 47.7l-60-72.4-14.5-17.6-22.3 4.9c-21.8 4.8-43.9 7.3-65.9 7.3-22.1 0-44.3-2.4-65.9-7.3l-22.3-5-14.6 17.6-60.1 72.4c-29.1-12.6-56.5-28.4-81.9-47.3l32.3-88.9 7.8-21.4-15.6-16.5c-29.9-32.3-52.7-71.7-65.9-113.8l-6.8-21.8-22.6-3.8-92.6-15.8c-1.8-15.8-2.7-31.8-2.7-47.6 0-15.9 0.9-31.9 2.7-47.6l92.6-15.8 22.6-3.8 6.8-21.8c13.1-42 35.9-81.4 65.9-113.9l15.9-17.2-8.6-21.8-34-86.3c26.1-19.7 54.2-36 84-48.9l60.1 72.4 14.6 17.6 22.3-5c21.4-4.8 43.5-7.2 65.8-7.2 21.4 0 42.7 2.3 63.4 6.8l21.7 4.7 14.5-16.8 62.8-73M511.3 736.1c123.5 0 224-100.5 224-224s-100.5-224-224-224c-123.6 0-224.1 100.5-224.1 224 0.1 123.5 100.6 224 224.1 224m151.4-646l-80 92.7c-23-5-46.9-7.6-71.3-7.6-25.5 0-50.2 2.8-74 8.2L360 90.2c-51.8 18.6-99.2 46.5-140.2 81.7l44 111.9c-33.5 36.3-59 79.9-74.1 128.1L70.3 432.1c-4.7 25.9-7.1 52.6-7.1 79.9 0 27.3 2.4 53.9 7.1 79.9l119.3 20.3c15.1 48.2 40.6 91.9 74.1 128.1l-41.4 114.2c40.4 34.1 86.9 61.2 137.6 79.4l77.4-93.2c23.8 5.3 48.6 8.2 74 8.2s50.2-2.9 74-8.2l77.3 93.2c51-18.3 97.7-45.6 138.2-80l-42-113.6c33.5-36.2 59-79.8 74.1-128.1l119.3-20.3c4.7-25.9 7.1-52.6 7.1-79.9 0-27.3-2.4-53.9-7.1-79.9l-119.3-20.3c-15.1-48.2-40.6-91.9-74.1-128.1l42-113.6c-40.4-34.4-87.1-61.6-138.1-80zM511.3 698.7c-103.1 0-186.7-83.6-186.7-186.7s83.6-186.7 186.7-186.7c103 0 186.7 83.6 186.7 186.7 0 103.2-83.6 186.7-186.7 186.7z" fill="#060001" p-id="9783"></path></svg>