<?xml version="1.0" standalone="no"?>
<!DOCTYPE svg PUBLIC "-//W3C//DTD SVG 1.1//EN" "http://www.w3.org/Graphics/SVG/1.1/DTD/svg11.dtd">
<svg t="1707469394304"
    class="icon" viewBox="0 0 1024 1024" version="1.1" xmlns="http://www.w3.org/2000/svg" p-id="4203"
    xmlns:xlink="http://www.w3.org/1999/xlink" width="200" height="200">
    <path fill="#f59305fa"
        d="M384 213.333333a42.666667 42.666667 0 1 0 0 85.333334 42.666667 42.666667 0 0 0 0-85.333334zM263.253333 213.333333a128.042667 128.042667 0 0 1 241.493334 0H810.666667a42.666667 42.666667 0 1 1 0 85.333334h-305.92a128.042667 128.042667 0 0 1-241.493334 0H213.333333a42.666667 42.666667 0 0 1 0-85.333334h49.92zM640 469.333333a42.666667 42.666667 0 1 0 0 85.333334 42.666667 42.666667 0 0 0 0-85.333334z m-120.746667 0a128.042667 128.042667 0 0 1 241.493334 0H810.666667a42.666667 42.666667 0 1 1 0 85.333334h-49.92a128.042667 128.042667 0 0 1-241.493334 0H213.333333a42.666667 42.666667 0 1 1 0-85.333334h305.92zM384 725.333333a42.666667 42.666667 0 1 0 0 85.333334 42.666667 42.666667 0 0 0 0-85.333334z m-120.746667 0a128.042667 128.042667 0 0 1 241.493334 0H810.666667a42.666667 42.666667 0 1 1 0 85.333334h-305.92a128.042667 128.042667 0 0 1-241.493334 0H213.333333a42.666667 42.666667 0 1 1 0-85.333334h49.92z"
        p-id="4204">
    </path>
</svg>