<?xml version="1.0" standalone="no"?><!DOCTYPE svg PUBLIC "-//W3C//DTD SVG 1.1//EN" "http://www.w3.org/Graphics/SVG/1.1/DTD/svg11.dtd"><svg t="1710511234243" class="icon" viewBox="0 0 1024 1024" version="1.1" xmlns="http://www.w3.org/2000/svg" p-id="9055" xmlns:xlink="http://www.w3.org/1999/xlink" width="200" height="200"><path d="M512 1024a512 512 0 1 1 512-512 512.5888 512.5888 0 0 1-512 512z m0-921.6a409.6 409.6 0 1 0 409.6 409.6A410.0608 410.0608 0 0 0 512 102.4z m192.384 510.4384l-204.8-51.2A51.2 51.2 0 0 1 460.8 512V256a51.2 51.2 0 0 1 102.4 0v216.0128l166.016 41.5488a51.2 51.2 0 1 1-24.832 99.2768z" fill="#54626C" p-id="9056"></path></svg>