<?xml version="1.0" standalone="no"?>
<!DOCTYPE svg PUBLIC "-//W3C//DTD SVG 1.1//EN" "http://www.w3.org/Graphics/SVG/1.1/DTD/svg11.dtd"><svg t="1710512902809"
    class="icon" viewBox="0 0 1140 1024" version="1.1" xmlns="http://www.w3.org/2000/svg" p-id="22311"
    xmlns:xlink="http://www.w3.org/1999/xlink" width="222.65625" height="200">
    <path
        d="M0 455.214545a113.757091 113.757091 0 0 1 113.780364-113.873454H1026.56c62.836364 0 113.780364 50.734545 113.780364 113.873454v454.912A113.757091 113.757091 0 0 1 1026.583273 1024H113.803636C50.944 1024 0 973.265455 0 910.126545V455.214545z m665.250909 172.032l-102.376727-48.570181c-37.864727-17.966545-68.724364 1.326545-68.724364 43.170909v76.008727c0 41.704727 30.766545 61.184 68.724364 43.170909l102.4-48.570182c37.841455-17.966545 37.934545-47.197091 0-65.210182zM59.042909 256c0-15.709091 12.939636-28.439273 28.439273-28.439273h966.144c15.685818 0 28.416 12.613818 28.416 28.439273 0 15.709091-12.916364 28.439273-28.416 28.439273H87.482182A28.369455 28.369455 0 0 1 59.042909 256z m63.930182-113.780364c0-15.709091 12.660364-28.439273 28.276364-28.439272h838.586181c15.616 0 28.276364 12.613818 28.276364 28.439272 0 15.709091-12.660364 28.439273-28.276364 28.439273H151.272727c-15.592727 0-28.276364-12.613818-28.276363-28.439273z m63.953454-113.780363C186.926545 12.730182 199.586909 0 215.133091 0h710.818909C941.544727 0 954.181818 12.637091 954.181818 28.439273c0 15.709091-12.683636 28.439273-28.229818 28.439272H215.133091c-15.592727 0-28.206545-12.613818-28.206546-28.439272z"
        fill="#333333" p-id="22312"></path>
</svg>