<?xml version="1.0" standalone="no"?><!DOCTYPE svg PUBLIC "-//W3C//DTD SVG 1.1//EN" "http://www.w3.org/Graphics/SVG/1.1/DTD/svg11.dtd"><svg t="1710512881389" class="icon" viewBox="0 0 1024 1024" version="1.1" xmlns="http://www.w3.org/2000/svg" p-id="21300" xmlns:xlink="http://www.w3.org/1999/xlink" width="200" height="200"><path d="M565.248 85.333333a113.066667 113.066667 0 0 1 112.853333 105.898667l0.213334 7.168v46.933333c0 3.712-0.469333 7.253333-1.365334 10.666667h61.738667c13.952 0 34.048 9.728 48 28.458667 15.658667 15.957333 23.978667 39.466667 23.978667 56.874666v49.322667l60.842666-39.381333 4.864-2.730667c35.456-16.896 78.592-3.2 96.853334 31.573333 4.266667 8.106667 6.912 16.896 7.765333 25.984l0.341333 6.826667v368.853333C981.333333 821.76 948.181333 853.333333 908.288 853.333333c-8.832 0-17.578667-1.578667-25.813333-4.608l-6.101334-2.56-4.693333-2.645333-61.013333-39.125333V853.333333c0 17.408-8.32 40.917333-24.021334 56.874667-13.909333 18.730667-34.005333 28.458667-48 28.458667H114.688C78.037333 938.666667 42.666667 897.28 42.666667 853.333333V341.333333c0-17.408 8.32-40.917333 24.021333-56.874666C80.597333 265.728 100.693333 256 114.688 256H594.346667a42.496 42.496 0 0 1-1.066667-5.674667l-0.298667-4.992v-46.933333a27.733333 27.733333 0 0 0-23.637333-27.434667L565.248 170.666667h-375.466667a42.666667 42.666667 0 0 1-4.992-85.034667L189.781333 85.333333h375.466667z m157.696 256H130.346667l-2.218667 2.218667 0.042667 0.170667L128 853.333333h594.901333l2.261334-2.261333 0.170666-0.298667V343.850667l-0.170666-0.298667L722.944 341.333333z m-347.946667 127.488c8.874667 0 17.578667 2.261333 25.301334 6.613334l184.405333 103.722666a51.626667 51.626667 0 0 1 0 90.026667l-184.405333 103.68A51.626667 51.626667 0 0 1 323.413333 727.893333v-207.445333c0-28.544 23.125333-51.626667 51.626667-51.626667zM896 437.077333l-85.333333 55.296v210.645334l85.333333 54.784v-320.725334zM408.704 578.048v92.16l81.962667-46.08-81.962667-46.08zM213.333333 384c26.24 0 42.666667 19.712 42.666667 42.666667v0.128A42.666667 42.666667 0 1 1 213.333333 384z" fill="#1E1E1E" p-id="21301"></path></svg>