<?xml version="1.0" standalone="no"?>
<!DOCTYPE svg PUBLIC "-//W3C//DTD SVG 1.1//EN" "http://www.w3.org/Graphics/SVG/1.1/DTD/svg11.dtd"><svg t="1710555655644"
    class="icon" viewBox="0 0 1024 1024" version="1.1" xmlns="http://www.w3.org/2000/svg" p-id="24223"
    xmlns:xlink="http://www.w3.org/1999/xlink" width="200" height="200">
    <path
        d="M162.33 551.94l323.5 171a55.97 55.97 0 0 0 52.34 0l323.5-171c13.67-7.23 18.89-24.17 11.67-37.84-7.23-13.67-24.17-18.89-37.84-11.67l-323.5 171-323.5-171c-13.67-7.23-30.61-2-37.84 11.67-7.23 13.67-2 30.61 11.67 37.84z"
        fill="#a1a1a1" p-id="24224"></path>
    <path
        d="M835.5 670.45l-323.5 171-323.5-171c-13.67-7.23-30.61-2-37.84 11.66-7.23 13.68-2 30.62 11.67 37.84l323.5 171a55.97 55.97 0 0 0 52.34 0l323.5-171c13.67-7.23 18.89-24.17 11.67-37.84-7.23-13.67-24.17-18.89-37.84-11.66zM162.85 356.96L498.91 534.6a27.985 27.985 0 0 0 26.17 0l336.06-177.64c19.89-10.51 19.89-39 0-49.51L525.09 129.81a27.985 27.985 0 0 0-26.17 0L162.85 307.45c-19.89 10.51-19.89 39 0 49.51zM512 186.24l276.15 145.97L512 478.18 235.85 332.21 512 186.24z"
        fill="#a1a1a1" p-id="24225"></path>
</svg>